<?xml version="1.0" encoding="UTF-8"?>
<svg id="Capa_1" data-name="Capa 1" xmlns="http://www.w3.org/2000/svg" viewBox="0 0 1203.57 1180.47">
  <defs>
    <style>
      .cls-1 {
        fill: #fff;
      }
    </style>
  </defs>
  <path d="m0,1180.47c.57-1.61.95-3.32,1.73-4.82,23.28-44.42,46.46-88.9,69.98-133.2,13.42-25.27,29.31-48.85,51.48-67.41,10.69-8.95,21.9-17.32,33.27-25.39,22.47-15.95,45.15-31.63,67.89-47.19,9.03-6.18,18.25-12.15,27.78-17.51,7.04-3.96,14.7-6.82,22.12-10.1,2.39-1.05,4.88-1.87,7.61-2.9-.44-1.6-.63-2.8-1.09-3.88-6.44-15.11-6.39-30.62-2.54-46.24,1.77-7.18,4.3-14.18,6.31-21.31.55-1.95.43-4.09.67-6.13.37-3.11.28-6.39,1.31-9.27,2.07-5.78,4.77-11.34,7.46-17.57-1.97.23-3.61.33-5.21.63-29.93,5.74-66.25-9.38-82.45-42.81-4.45-9.17-9.63-18.08-11.64-28.32-1.96-9.94-2.95-19.95-2.27-30.02.85-12.5,2.25-24.96,3.4-37.44.15-1.58.11-3.19.38-4.75.85-5.01-.75-9.15-3.56-13.34-7.96-11.88-15.78-23.88-23.23-36.09-9.71-15.89-16.7-33.08-22.68-50.65-4.44-13.05-3.96-26.47-1.38-39.8,1.81-9.35,3.91-18.66,6.25-27.89,2.31-9.13,5.99-17.8,11.48-25.47,2.81-3.92,3.38-7.8,2.98-12.35-1.09-12.45.09-24.66,4.22-36.55,7.33-21.13,20.64-37.61,38.84-50.3,4.34-3.03,8.89-5.77,13.42-8.52,3.42-2.07,6.05-4.76,8.04-8.23,3.51-6.13,7.17-12.18,10.77-18.26,4.71-7.96,6.73-16.53,6.55-25.81-.39-20.06,1.66-39.86,7.3-59.18,6.97-23.87,19.99-43.88,38.67-60.26,10.66-9.35,22.14-17.55,34.18-25,21.04-13.01,41.96-26.2,63.08-39.06,10.66-6.49,18.87-14.9,25.38-25.66,19.69-32.58,49.22-51.33,86.11-58.95,7.58-1.56,15.31-2.49,23.02-3.24,10.88-1.05,21.4,1.94,32,3.68,28.18,4.62,53.77,15.74,77.43,31.48,3.09,2.06,5.79,2.76,9.28,1.27,9.09-3.88,18.3-7.47,27.39-11.34,14.98-6.37,30.43-10.83,46.83-9.15,18.87,1.94,34.96,9.58,46.19,25.62.81,1.16,1.82,2.28,2.23,3.58,1.5,4.76,5.04,6.74,9.5,8.24,9.79,3.28,19.79,5.09,30.05,5.97,16.59,1.42,32.24,6.01,46.59,14.63,23.79,14.29,35.31,35.77,36.74,63.07.56,10.65-.65,21.19-3.18,31.52-1.01,4.11-.21,6.28,3.39,9.07,12.22,9.5,22.13,21.28,30.46,34.33,10.74,16.83,17.57,35.01,18.28,55.14.49,13.76,1.22,27.54.8,41.28-.73,24.25-7.33,46.98-19.83,67.91-2.07,3.46-3.74,7.16-5.76,11.09,1.73,1.37,3.21,2.57,4.71,3.72,11.02,8.46,20.65,18.23,28.27,29.9,9.67,14.79,14.41,30.82,13.18,48.66-.82,11.86-2.16,23.56-5.71,34.92-2.23,7.12-5.14,13.93-9.92,19.77-1.31,1.6-2.25,3.22-1.48,5.3,1.96,5.33,1.7,10.82.87,16.23-.75,4.9.78,8.1,4.67,11.26,12.55,10.18,21.34,23.04,25.13,38.91,4.63,19.43.04,36.01-15.84,48.86-.82.67-1.63,1.35-2.43,2.05-.26.23-.45.54-1.1,1.35,1.01,2.23,2.15,4.75,3.3,7.27,10.19,22.24,11.35,44.97,3.27,68.04-1.74,4.96-4.17,9.75-6.82,14.31-2.56,4.41-5.8,8.43-9.01,13,.65.81,1.5,1.85,2.32,2.91,2.57,3.36,5.35,6.58,7.62,10.13,2.55,3.97,3.25,8.46,2.75,13.23-.25,2.39,0,4.91.49,7.27,2.26,11.11,3.91,22.23,2.89,33.64-1.35,15.12-7.68,27.74-18.59,38.16-1.15,1.1-2.32,2.18-3.44,3.3-.23.23-.32.61-.75,1.51,1.14.98,2.3,2.24,3.69,3.12,22.52,14.29,45.06,28.56,67.63,42.78,21.89,13.79,42.42,29.37,61.14,47.24,16.23,15.49,32.66,30.8,48.27,46.89,25.09,25.85,43.43,56.03,55.05,90.18,9.38,27.57,18.59,55.2,27.84,82.82.67,1.99,1.05,4.08,1.56,6.12h-21.21c-5.98-18.28-11.75-36.63-18.02-54.8-5.12-14.84-10.41-29.65-16.37-44.17-12.98-31.64-33.96-57.63-58.54-80.95-10.38-9.85-20.95-19.49-31.27-29.39-17.01-16.3-35.17-31.11-55.2-43.59-16.64-10.36-33.14-20.94-49.7-31.42-10.15-6.42-20.34-12.77-30.41-19.31-3.24-2.1-6-2.62-9.67-.62-6.81,3.72-13.95,6.82-20.94,10.21-1.17.57-2.28,1.28-4.1,2.31,2.9,1.73,5.05,3.24,7.38,4.38,13.32,6.51,26.64,13.03,40.04,19.36,7.39,3.49,12.59,8.53,13.18,17.06.44,6.29-1.84,11.82-5.85,16.56-3.19,3.77-6.67,7.3-9.93,11.02-1.37,1.56-2.52,3.31-3.99,5.27,2.87,2.36,5.39,4.54,8,6.58,14.63,11.39,29.32,22.72,43.92,34.15,6.41,5.02,7.19,9.67,2.77,16.5-7.79,12.05-14.55,24.61-19.28,38.2-2.55,7.33-5.38,14.59-7.46,22.06-9.08,32.63-17.94,65.32-26.84,98-.22.82-.08,1.73-.11,2.6h-21.21c.17-1.21.23-2.45.54-3.63,7.38-27.61,14.83-55.21,22.17-82.83,7-26.34,15.45-52.13,29.16-75.87,1.67-2.89.61-4.55-1.6-6.23-12.49-9.53-24.96-19.09-37.46-28.61-.94-.72-2.07-1.19-3.44-1.96-1.44,2.56-2.7,4.84-4,7.09-2.18,3.77-5.07,6.79-9.17,8.46-5.48,2.22-10.85.85-13.66-3.45-2.8-4.27-1.84-8.78,2.36-13.34,2.23-2.42,4.5-5.07,5.83-8.02,5.66-12.55,13.29-23.67,22.88-33.51,1.94-1.99,3.61-4.24,5.55-6.55-1.71-1.02-2.87-1.82-4.12-2.46-18.89-9.58-37.81-19.11-56.66-28.75-3.71-1.9-7.28-2.09-11.22-.89-20.25,6.19-40.54,12.25-60.8,18.41-2.14.65-4.18,1.62-6.68,2.61.79,2.25,1.37,4.06,2.06,5.82,10.8,27.49,19.35,55.64,25.62,84.51,5.09,23.45,10.2,46.9,15.81,70.22,8.05,33.47,18.09,66.38,29.11,98.99h-21.21c-.3-.64-.67-1.26-.87-1.92-6.78-22.47-14.34-44.73-20.14-67.45-9.16-35.9-17.1-72.12-25.63-108.19-5.57-23.56-12.48-46.72-21.69-69.14-.98-2.38-2.17-4.67-3.38-7.23-2.2.86-3.8,1.48-5.74,2.24,0,1.86.07,3.6-.01,5.34-.79,16.76-1.1,33.56-2.53,50.26-1.8,20.92-4.52,41.77-6.86,62.64-2.27,20.35-4.63,40.69-6.81,61.06-2.32,21.61-3.38,43.31-3.65,65.04-.03,2.45-.16,4.91-.25,7.36h-20.15c.02-.53.06-1.06.06-1.59-.43-28.84,1.59-57.54,4.85-86.17,1.9-16.67,3.85-33.32,5.67-50,1.94-17.73,3.69-35.48,5.64-53.2,1.78-16.16,3.08-32.35,2.98-48.62,0-1.3-.36-2.6-.54-3.8-.81-.06-1.18-.17-1.51-.09-11.13,2.48-21.44,7.09-31.46,12.34-1.48.78-2.66,2.76-3.28,4.44-3.37,9.1-6.65,18.25-9.74,27.45-6.13,18.3-11.34,36.91-11.84,56.29-.48,18.34-.08,36.73.51,55.08.74,23.1-1.01,45.84-7.22,68.2-1.78,6.43-2.67,13.11-3.96,19.68h-40.3c-.7-7.37-2.07-14.75-1.97-22.11.31-22.98,2.13-45.9,5.56-68.6,3.59-23.72,7.99-47.33,12.54-70.89,1.44-7.46-.96-14.21-1.17-22.28-2.89,3.45-2.67,6.76-3.49,9.72-1.87,6.82-6.6,10.1-12.87,8.87-5.31-1.04-8.72-6.11-7.76-12.63.69-4.67,1.87-9.36,3.56-13.76,2.95-7.68,7.92-14.15,13.71-19.96,13.74-13.8,29.97-24.1,47.06-33.13,24.46-12.92,50.47-21.99,76.88-29.92,27.39-8.22,54.92-15.96,82.23-24.41,23.16-7.17,45.63-16.16,66.41-28.82,5.98-3.64,11.58-8.11,16.75-12.85,7.23-6.63,10.79-15.33,10.73-25.11-.05-7.03-.89-14.06-1.6-21.07-.41-4.05-1.34-7.99-4.75-10.85-.76-.64-1.34-1.72-1.6-2.71-1.21-4.57-4.52-7.43-8.3-10.63-3.77,3.53-7.58,6.91-11.17,10.51-6.31,6.33-13.51,11.33-21.6,15.1-13.2,6.15-27.25,8.69-41.65,8.92-10.55.17-19.72-3.6-26.4-12.27-.51-.67-1.24-1.17-1.82-1.71-1.23.39-2.25.67-3.24,1.03-13.19,4.66-26.41,9.04-40.78,7.48-1.57-.17-3.65.56-4.87,1.6-5.06,4.3-9.89,8.89-15.1,13.64,1.42.61,2.66,1.23,3.94,1.68,7.16,2.52,14.29,5.14,21.51,7.47,5.79,1.87,11.34,3.94,14.92,10.14,1.54-2.13,2.91-3.69,3.89-5.46,2.83-5.09,5.49-10.28,8.26-15.41.83-1.55,1.61-3.18,2.72-4.51,2.95-3.54,7.44-4.56,11.49-2.85,4.18,1.77,6.78,5.55,6.37,10-.21,2.23-.93,4.5-1.84,6.56-7.52,16.98-17.69,32.16-31.08,45.09-20.47,19.77-45.25,31.08-72.89,36.4-16.46,3.17-33.06,5.6-49.56,8.59-11.65,2.11-23.19,4.76-33.9,10.09-13.52,6.73-24.23,15.84-27.2,31.67-.5,2.65-1.89,5.18-4.6,6.12-8.26,2.87-16.55,3.11-21.78-4.8-7.82-11.83-18.31-20.96-30.07-28.73-11.09-7.32-22.84-13.41-35.01-18.69-14.74-6.4-29.55-12.63-44.31-18.97-20.29-8.7-38.82-20.19-55.38-34.83-2.77-2.45-5.71-4.74-8.66-6.98-13.91-10.59-29.65-15.29-47.08-14.6-1.76.07-3.56.19-5.29-.06-5.18-.74-8.88-4.87-9.28-10.1-.34-4.58,2.65-8.62,7.68-10.1,1.85-.54,3.8-.87,5.72-.96,15.28-.73,29.87,2.19,43.75,8.58,1.42.65,2.96,1.41,3.95,2.55,2.12,2.43,4.5,2.51,7.14,1.36,9.23-4.02,18.44-8.06,27.62-12.18,1.05-.47,2.38-1.3,2.7-2.25,1.64-4.99,2.99-10.08,4.43-15.09-.94-.47-1.38-.81-1.87-.92-9.47-2.14-18.93-4.29-28.43-6.31-1.48-.31-3.24-.34-4.63.17-5.64,2.03-11.2,4.27-16.76,6.52-13.58,5.51-27.54,8.74-42.33,7.59-13.01-1.01-24.72-5.47-35.43-12.83-2.68-1.85-5.59-3.37-8.11-4.87-.79.61-.97.69-1.06.83-4.17,6.5-5.38,14.61-11.02,20.34-.56.57-.69,1.61-.94,2.45-2.07,6.93-4.27,13.83-6.15,20.81-2,7.41-2.48,15.02-1.44,22.61,1.61,11.74,8.16,20.48,17.6,27.24,8.4,6.01,17.71,10.24,27.31,13.9,19.67,7.5,39.96,12.93,60.33,18.09,23.78,6.02,47.65,11.77,70.75,20.17,24.9,9.05,48.34,20.76,68.73,37.98,11.28,9.53,21.09,20.37,28.91,32.92,4.58,7.35,3.6,12.01-3.24,17.37-.68.53-1.38,1.05-2.16,1.63.14,1,.21,1.85.38,2.7,3.7,19.06,8.06,38.01,10.96,57.19,3.73,24.6,6.47,49.35,9.25,74.08,1.02,9.09.94,18.31,1.36,27.46h-67.87c-.5-2.05-.89-4.13-1.52-6.14-19.18-61.86-38.37-123.7-57.57-185.55-4.34-13.99-8.81-27.94-13-41.97-.98-3.28-2.65-4.99-5.97-5.75-5.16-1.18-10.2-2.82-15.32-4.17-26.95-7.11-54.19-13.18-80.63-22.16-.45-.15-1.01-.02-2.11-.02-.79,3.46-1.59,7.03-2.43,10.59-3.21,13.6-5.81,27.25-5.01,41.38.21,3.82,1.43,6.02,4.88,7.75,14.25,7.14,29,12.93,44.18,17.73,2.7.85,5.08.71,7.68-.34,6.38-2.58,12.84-4.97,19.28-7.4,1.65-.62,3.31-1.26,5.02-1.67,4.76-1.16,9.68,1.33,11.8,5.85,2.19,4.69.89,9.64-3.58,12.49-2.21,1.41-4.67,2.5-7.11,3.5-15.52,6.34-31.08,12.59-46.6,18.94-3.05,1.25-5.99,2.77-8.86,4.11.11,1.08.05,1.64.24,2.09,1.17,2.76,2.33,5.53,3.62,8.24,22.31,46.91,46.78,92.66,73.26,137.34.96,1.62,1.58,3.45,2.36,5.18h-24.39c-.94-1.88-1.77-3.82-2.82-5.63-27.13-46.55-52.04-94.24-74.69-143.13-.96-2.07-1.9-4.19-2.53-6.38-1.4-4.86,0-8.66,4.25-11.44,1.91-1.25,4.05-2.13,6.12-3.13,3.13-1.51,6.29-2.98,10.31-4.87-2.66-1.39-4.46-2.42-6.34-3.29-7.22-3.31-14.48-6.53-21.68-9.88-2.56-1.19-5.05-2.54-7.47-3.98-4.17-2.49-6.83-6.06-7.25-11.05-.35-4.21-.87-8.42-1.03-12.65-.5-13.52,1.95-26.7,4.79-39.84,1.11-5.16,1.79-10.41,2.7-15.62.46-2.62-.6-4.21-2.89-5.54-6.25-3.64-12.38-7.5-18.54-11.29-2.37-1.46-4.94-2.15-7.6-1.29-7.54,2.44-15.43,4.23-22.43,7.77-10.53,5.32-20.75,11.41-30.5,18.06-27.86,19.01-55.49,38.34-83.05,57.78-20.66,14.57-39.01,31.57-52.36,53.31-7.57,12.33-14.98,24.79-21.76,37.56-19.46,36.63-38.57,73.44-57.8,110.2-.73,1.39-1.28,2.88-1.91,4.32H0ZM795.55,331.65c-1.99-.65-3.44-1.14-4.9-1.61-8.77-2.83-17.32-6.12-24.98-11.37-4.87-3.34-9.44-7.13-11.73-12.67-4.11-9.94-8.1-19.96-11.54-30.15-3.07-9.09-3.72-18.7-4.03-28.23-.2-5.98-1.64-11.03-6.3-15.08-1.97-1.71-3.74-3.84-5.06-6.09-3.34-5.65-8.57-8.83-14.24-11.39-11.23-5.06-20.38-3.02-28.64,6.11-.36.39-.68.82-1.04,1.2-4.05,4.23-6.48,4.37-10.8.54-3.83-3.4-7.53-6.96-11.45-10.25-5.17-4.34-10.75-8.07-17.21-10.24-12.76-4.3-22.77,1.02-26.79,13.9-3.26,10.44-6.71,20.83-10.27,31.18-3.23,9.38-7.57,18.25-12.82,26.69-17.17,27.59-42.59,40.28-74.47,41.11-6.51.17-13.07-.35-19.58-.9-8.56-.73-14.9,3.19-19.22,9.86-3.61,5.56-6.48,11.76-8.75,18.01-3.62,9.98-5.27,20.46-6.34,31.05-1.02,10.17-1.78,20.51-4.25,30.37-5.52,22.11-19.18,36.95-41.78,42.63-2.9.73-5.88,1.15-8.84,1.65-7.09,1.2-11.05,5.8-13.2,12.25-.72,2.16-1.44,4.45-1.47,6.69-.07,6.17-.04,12.36.44,18.51.47,6.15,1.71,12.24,2.29,18.39.65,6.87-.93,9.14-7.42,11.5-1.98.72-4.03,1.29-6.09,1.77-5.43,1.27-9.95-.48-12.91-5.03-2.19-3.36-4.03-7.09-5.22-10.91-1.83-5.88-2.92-11.99-4.39-17.99-3.18-13.03-6.4-26.04-9.6-39.06-.74-3.02-2.43-5.12-5-7.08-3.74-2.85-6.86-6.53-10.23-9.87-.94-.93-1.84-1.91-3.24-3.36-2.31,3.09-4.24,5.68-6.04,8.1.7,1.09.9,1.63,1.28,1.95,6.96,5.97,10.78,13.86,13.61,22.34,5.07,15.14,8.33,30.68,9.66,46.56.79,9.49,1.23,19.1-1.69,28.39-.77,2.44-2.16,4.8-3.71,6.86-1.75,2.32-4.44,2.92-7.18,1.93-2.77-1-4.14-3.24-4.33-6.11-.1-1.58-.15-3.21.13-4.75,2-11.06,1.54-22.17.92-33.29-.27-4.78-.92-5.41-5.49-6.21-1.56-.27-3.15-.43-4.71-.74-9.86-1.93-19.33-.9-28.34,3.69-1.89.96-3.77,1.98-5.75,2.7-2.96,1.07-5.56.28-7.64-2.1-2.19-2.52-2.82-5.66-1.05-8.32,1.22-1.83,3.01-3.52,4.93-4.59,10.42-5.85,21.59-8.59,33.59-7.39,2.91.29,5.81.61,9.57,1.01-2.32-12.08-5.22-22.86-15.17-29.5-8.94,4.95-16.95,10.28-25.65,13.96-8.7,3.67-18.11,5.68-27.72,8.57-.09,2-.44,4.27-.25,6.5.9,10.2,1.62,20.43,3.04,30.56,2.24,15.94,8.19,30.68,16.27,44.5,5.67,9.69,13.65,16.87,24.38,21.04,12.06,4.69,24.31,8.63,37.07,10.67,4.31.69,6.73,2.61,8.85,6.3,21.35,37.02,45.94,71.69,75.83,102.37,18.6,19.09,38.98,35.9,63.44,47.16.61.28,1.13.76,2.23,1.51-6.23,31.52-11.2,63.37-19.99,94.2-12.01,2.35-23.67,4.48-36.2,7.52,3.87,3.18,6.78,5.72,9.84,8.07,14.27,10.97,30.4,18.54,46.8,25.65,16.36,7.09,32.83,13.95,48.95,21.56,18.96,8.96,36.4,20.29,50.86,35.77.91.98,2.15,1.66,3.42,2.61.86-1.08,1.6-1.82,2.13-2.69,7.93-12.99,19.49-21.69,33.06-28.01,11.77-5.48,24.2-8.81,36.92-11.09,18.24-3.26,36.55-6.16,54.75-9.63,22.82-4.35,42.57-14.76,58.97-31.32.92-.93,1.65-2.05,2.7-3.36-1.81-.61-3.13-1.08-4.47-1.49-8.11-2.45-16.29-4.69-24.33-7.36-12.05-4.01-23.99-8.37-36.01-12.49-4.56-1.56-6.87-4.62-7.05-9.39-.04-1.06-.21-2.11-.27-3.17-.72-12.87-1.42-25.74-2.14-38.61-.09-1.53-.25-3.06-.4-4.91-1.88.38-3.42.64-4.93,1.01-7.89,1.93-15.77,3.87-23.65,5.85-22.1,5.54-44.35,6.15-66.73,2.05-2.08-.38-4.18-.82-6.15-1.55-2.36-.87-3.63-3.23-3.18-5.45.52-2.57,2.4-3.27,4.74-3.2.88.03,1.77.06,2.65.14,18.75,1.68,37.41.9,55.96-2.31,37.76-6.53,70.13-23.33,96.73-50.98,24.24-25.2,40.36-55.16,50.92-88.25,6.46-20.26,11.06-40.92,10.71-62.36-.11-6.88-.79-13.75-1.18-20.63-.83-14.81-1.75-29.62-2.43-44.44-1.31-28.94-2.41-57.89-1.05-86.87.3-6.31.04-12.65.04-19.17-.91-.37-1.84-.98-2.84-1.13-8.03-1.18-16.04-2.7-24.12-3.31-19.62-1.47-38.27,2.66-56.12,10.75-2.88,1.3-5.84,2.58-8.9,3.3-6.82,1.6-12.31-2.07-13.79-8.91-1.39-6.4-.15-12.28,3.73-17.56,3.91-5.31,8.41-10.16,14.1-13.48,14.63-8.54,29.39-16.88,44.25-25.02,4.44-2.43,9.4-3.94,14.67-6.1Zm-324.45,619.4c1.01,3.88,1.64,6.77,2.51,9.58,17.64,56.97,35.31,113.93,52.97,170.89,3.34,10.79,6.65,21.58,10.03,32.36.52,1.66.62,3.76,3.28,4.54-.17-3.36-.24-6.35-.49-9.33-1.67-19.17-3.3-38.34-5.09-57.49-1.38-14.76-2.54-29.56-4.55-44.24-3.93-28.78-13.07-55.93-26.79-81.55-1.63-3.05-2.24-6.63-3.49-9.9-.46-1.2-1.16-2.61-2.18-3.24-7.82-4.84-16.16-8.57-26.2-11.62Z"/>
  <path class="cls-1" d="m23.33,1180.47c.63-1.44,1.18-2.93,1.91-4.32,19.23-36.75,38.34-73.57,57.8-110.2,6.79-12.77,14.19-25.23,21.76-37.56,13.35-21.74,31.7-38.74,52.36-53.31,27.56-19.44,55.2-38.77,83.05-57.78,9.75-6.65,19.98-12.74,30.5-18.06,7-3.54,14.89-5.33,22.43-7.77,2.66-.86,5.23-.16,7.6,1.29,6.17,3.79,12.29,7.65,18.54,11.29,2.29,1.33,3.35,2.92,2.89,5.54-.91,5.2-1.59,10.46-2.7,15.62-2.84,13.14-5.29,26.32-4.79,39.84.16,4.22.67,8.43,1.03,12.65.42,4.99,3.08,8.56,7.25,11.05,2.42,1.45,4.91,2.8,7.47,3.98,7.2,3.34,14.47,6.56,21.68,9.88,1.88.86,3.68,1.9,6.34,3.29-4.02,1.9-7.18,3.36-10.31,4.87-2.06,1-4.21,1.88-6.12,3.13-4.25,2.78-5.65,6.58-4.25,11.44.63,2.19,1.56,4.31,2.53,6.38,22.65,48.88,47.56,96.58,74.69,143.13,1.05,1.81,1.89,3.75,2.82,5.63h-204.66c-.28-.83-.62-1.65-.83-2.5-8.47-34.98-18.47-69.52-29.78-103.68-.77-2.34-1.58-4.7-2.72-6.87-2.59-4.97-7.54-7.01-12.42-5.37-5.05,1.7-7.94,6.71-6.86,12.19.44,2.24,1.17,4.43,1.84,6.62,6.47,21.25,13.15,42.44,19.36,63.76,3.45,11.83,6.11,23.89,9.13,35.85H23.33Z"/>
  <path class="cls-1" d="m587.47,1180.47c-.42-9.16-.34-18.37-1.36-27.46-2.78-24.73-5.53-49.48-9.25-74.08-2.9-19.18-7.26-38.13-10.96-57.19-.16-.84-.24-1.7-.38-2.7.78-.59,1.48-1.1,2.16-1.63,6.84-5.36,7.82-10.02,3.24-17.37-7.82-12.55-17.63-23.39-28.91-32.92-20.39-17.22-43.83-28.93-68.73-37.98-23.1-8.4-46.97-14.14-70.75-20.17-20.37-5.16-40.66-10.59-60.33-18.09-9.6-3.66-18.91-7.88-27.31-13.9-9.44-6.76-15.99-15.5-17.6-27.24-1.04-7.58-.56-15.2,1.44-22.61,1.89-6.98,4.08-13.88,6.15-20.81.25-.84.38-1.88.94-2.45,5.65-5.73,6.85-13.84,11.02-20.34.09-.14.27-.22,1.06-.83,2.52,1.5,5.42,3.03,8.11,4.87,10.71,7.36,22.41,11.82,35.43,12.83,14.79,1.15,28.75-2.08,42.33-7.59,5.56-2.25,11.12-4.49,16.76-6.52,1.39-.5,3.15-.48,4.63-.17,9.5,2.02,18.96,4.17,28.43,6.31.49.11.93.45,1.87.92-1.44,5.01-2.79,10.1-4.43,15.09-.31.95-1.65,1.78-2.7,2.25-9.18,4.12-18.4,8.16-27.62,12.18-2.64,1.15-5.01,1.07-7.14-1.36-.99-1.14-2.53-1.89-3.95-2.55-13.89-6.39-28.47-9.31-43.75-8.58-1.92.09-3.88.42-5.72.96-5.04,1.48-8.03,5.53-7.68,10.1.39,5.23,4.1,9.36,9.28,10.1,1.73.25,3.53.13,5.29.06,17.42-.69,33.17,4.01,47.08,14.6,2.95,2.25,5.89,4.53,8.66,6.98,16.56,14.65,35.09,26.13,55.38,34.83,14.77,6.33,29.58,12.56,44.31,18.97,12.17,5.28,23.92,11.37,35.01,18.69,11.76,7.76,22.26,16.9,30.07,28.73,5.23,7.91,13.51,7.67,21.78,4.8,2.71-.94,4.11-3.47,4.6-6.12,2.97-15.83,13.68-24.94,27.2-31.67,10.71-5.33,22.25-7.98,33.9-10.09,16.5-2.99,33.1-5.42,49.56-8.59,27.64-5.32,52.42-16.64,72.89-36.4,13.39-12.93,23.56-28.12,31.08-45.09.91-2.06,1.64-4.33,1.84-6.56.41-4.45-2.19-8.24-6.37-10-4.05-1.71-8.54-.68-11.49,2.85-1.11,1.33-1.89,2.97-2.72,4.51-2.77,5.13-5.43,10.31-8.26,15.41-.99,1.77-2.36,3.33-3.89,5.46-3.58-6.2-9.13-8.27-14.92-10.14-7.22-2.33-14.35-4.94-21.51-7.47-1.29-.45-2.52-1.07-3.94-1.68,5.21-4.75,10.04-9.34,15.1-13.64,1.22-1.04,3.3-1.77,4.87-1.6,14.36,1.56,27.59-2.82,40.78-7.48,1-.35,2.02-.64,3.24-1.03.58.54,1.3,1.04,1.82,1.71,6.68,8.67,15.84,12.43,26.4,12.27,14.4-.23,28.45-2.77,41.65-8.92,8.09-3.77,15.29-8.77,21.6-15.1,3.59-3.6,7.4-6.98,11.17-10.51,3.78,3.2,7.09,6.06,8.3,10.63.26.98.84,2.07,1.6,2.71,3.41,2.85,4.34,6.79,4.75,10.85.71,7.01,1.55,14.04,1.6,21.07.06,9.78-3.5,18.48-10.73,25.11-5.17,4.74-10.77,9.2-16.75,12.85-20.78,12.66-43.25,21.66-66.41,28.82-27.31,8.45-54.85,16.19-82.23,24.41-26.41,7.93-52.41,17-76.88,29.92-17.08,9.02-33.32,19.33-47.06,33.13-5.78,5.81-10.75,12.28-13.71,19.96-1.69,4.4-2.88,9.09-3.56,13.76-.96,6.52,2.46,11.6,7.76,12.63,6.26,1.22,10.99-2.06,12.87-8.87.81-2.96.59-6.27,3.49-9.72.21,8.08,2.61,14.83,1.17,22.28-4.55,23.56-8.95,47.17-12.54,70.89-3.43,22.7-5.25,45.63-5.56,68.6-.1,7.36,1.27,14.74,1.97,22.11h-44.54Z"/>
  <path class="cls-1" d="m929.98,1180.47c.03-.87-.11-1.79.11-2.6,8.91-32.68,17.76-65.37,26.84-98,2.08-7.47,4.9-14.73,7.46-22.06,4.73-13.58,11.49-26.15,19.28-38.2,4.42-6.83,3.64-11.48-2.77-16.5-14.6-11.43-29.29-22.75-43.92-34.15-2.62-2.04-5.13-4.21-8-6.58,1.47-1.96,2.62-3.71,3.99-5.27,3.26-3.71,6.74-7.24,9.93-11.02,4.01-4.75,6.29-10.27,5.85-16.56-.6-8.53-5.79-13.57-13.18-17.06-13.41-6.33-26.73-12.84-40.04-19.36-2.33-1.14-4.48-2.64-7.38-4.38,1.82-1.03,2.92-1.74,4.1-2.31,6.99-3.39,14.13-6.49,20.94-10.21,3.67-2,6.43-1.48,9.67.62,10.07,6.53,20.27,12.88,30.41,19.31,16.56,10.48,33.06,21.06,49.7,31.42,20.04,12.47,38.19,27.28,55.2,43.59,10.33,9.9,20.9,19.54,31.27,29.39,24.58,23.32,45.56,49.31,58.54,80.95,5.96,14.52,11.25,29.33,16.37,44.17,6.27,18.18,12.04,36.53,18.02,54.8h-173.91c.45-1.32.75-2.73,1.38-3.96,6.71-13.21,13.18-26.55,20.31-39.52,5.99-10.9,11.06-22.1,13.96-34.18,3.12-13.03,5.91-26.15,8.7-39.26.5-2.37.58-4.93.31-7.34-.53-4.75-3.36-7.67-7.53-8.36-4.67-.78-8.53.88-10.73,4.97-.99,1.83-1.63,3.91-2.09,5.95-2.15,9.46-4.36,18.91-6.22,28.43-2.93,15.04-8.05,29.14-16.08,42.28-9.4,15.39-16.68,31.87-23.67,48.47-.33.79-.4,1.69-.59,2.53h-56.2Z"/>
  <path class="cls-1" d="m861.06,1180.47c-11.02-32.61-21.07-65.52-29.11-98.99-5.61-23.33-10.72-46.78-15.81-70.22-6.26-28.87-14.82-57.02-25.62-84.51-.69-1.76-1.27-3.57-2.06-5.82,2.5-.99,4.54-1.96,6.68-2.61,20.26-6.16,40.55-12.22,60.8-18.41,3.94-1.21,7.51-1.01,11.22.89,18.85,9.65,37.77,19.17,56.66,28.75,1.25.63,2.41,1.43,4.12,2.46-1.95,2.32-3.62,4.57-5.55,6.55-9.58,9.84-17.21,20.97-22.88,33.51-1.34,2.96-3.6,5.6-5.83,8.02-4.2,4.56-5.15,9.07-2.36,13.34,2.81,4.29,8.19,5.67,13.66,3.45,4.1-1.67,7-4.69,9.17-8.46,1.3-2.25,2.56-4.53,4-7.09,1.37.77,2.5,1.24,3.44,1.96,12.5,9.52,24.97,19.08,37.46,28.61,2.2,1.68,3.26,3.35,1.6,6.23-13.72,23.75-22.16,49.53-29.16,75.87-7.34,27.62-14.8,55.22-22.17,82.83-.31,1.17-.37,2.42-.54,3.63h-47.72Z"/>
  <path class="cls-1" d="m442.19,1180.47c-.78-1.73-1.4-3.56-2.36-5.18-26.48-44.68-50.95-90.44-73.26-137.34-1.29-2.71-2.45-5.47-3.62-8.24-.19-.45-.13-1.02-.24-2.09,2.88-1.34,5.81-2.87,8.86-4.11,15.52-6.34,31.08-12.6,46.6-18.94,2.44-1,4.9-2.08,7.11-3.5,4.47-2.85,5.77-7.8,3.58-12.49-2.12-4.52-7.03-7.01-11.8-5.85-1.71.42-3.37,1.05-5.02,1.67-6.44,2.43-12.9,4.82-19.28,7.4-2.6,1.05-4.98,1.2-7.68.34-15.18-4.8-29.93-10.59-44.18-17.73-3.45-1.73-4.66-3.92-4.88-7.75-.79-14.12,1.8-27.77,5.01-41.38.84-3.56,1.64-7.13,2.43-10.59,1.1,0,1.65-.14,2.11.02,26.44,8.99,53.68,15.05,80.63,22.16,5.12,1.35,10.17,2.99,15.32,4.17,3.32.76,4.99,2.46,5.97,5.75,4.19,14.03,8.66,27.98,13,41.97,19.2,61.85,38.4,123.7,57.57,185.55.62,2.01,1.02,4.09,1.52,6.14h-77.41Z"/>
  <path class="cls-1" d="m742.29,1180.47c.08-2.45.22-4.91.25-7.36.28-21.73,1.34-43.42,3.65-65.04,2.18-20.36,4.54-40.7,6.81-61.06,2.33-20.88,5.06-41.72,6.86-62.64,1.44-16.7,1.75-33.5,2.53-50.26.08-1.74.01-3.48.01-5.34,1.95-.76,3.54-1.38,5.74-2.24,1.2,2.56,2.4,4.85,3.38,7.23,9.2,22.43,16.12,45.58,21.69,69.14,8.53,36.07,16.47,72.28,25.63,108.19,5.8,22.72,13.36,44.99,20.14,67.45.2.67.58,1.28.87,1.92h-97.56Z"/>
  <path class="cls-1" d="m672.3,1180.47c1.3-6.57,2.18-13.25,3.96-19.68,6.2-22.36,7.95-45.09,7.22-68.2-.59-18.35-.99-36.73-.51-55.08.51-19.39,5.71-37.99,11.84-56.29,3.09-9.2,6.36-18.35,9.74-27.45.62-1.68,1.8-3.66,3.28-4.44,10.02-5.25,20.33-9.87,31.46-12.34.33-.07.69.04,1.51.09.18,1.2.53,2.5.54,3.8.1,16.27-1.2,32.46-2.98,48.62-1.95,17.73-3.7,35.47-5.64,53.2-1.82,16.67-3.77,33.33-5.67,50-3.26,28.63-5.28,57.33-4.85,86.17,0,.53-.04,1.06-.06,1.59h-49.84Z"/>
  <path d="m986.18,1180.47c.19-.85.26-1.74.59-2.53,6.98-16.6,14.27-33.08,23.67-48.47,8.03-13.15,13.15-27.24,16.08-42.28,1.85-9.52,4.07-18.97,6.22-28.43.46-2.04,1.11-4.12,2.09-5.95,2.2-4.08,6.06-5.74,10.73-4.97,4.17.69,7,3.62,7.53,8.36.27,2.41.2,4.97-.31,7.34-2.78,13.11-5.57,26.23-8.7,39.26-2.89,12.08-7.97,23.28-13.96,34.18-7.13,12.98-13.6,26.32-20.31,39.52-.63,1.23-.93,2.64-1.38,3.96h-22.27Z"/>
  <path d="m190.87,1180.47c-3.02-11.96-5.69-24.02-9.13-35.85-6.21-21.32-12.89-42.51-19.36-63.76-.67-2.19-1.4-4.38-1.84-6.62-1.08-5.48,1.82-10.49,6.86-12.19,4.88-1.64,9.83.4,12.42,5.37,1.13,2.17,1.94,4.54,2.72,6.87,11.31,34.16,21.31,68.7,29.78,103.68.21.85.55,1.67.83,2.5h-22.27Z"/>
  <path class="cls-1" d="m795.55,331.65c-5.28,2.16-10.23,3.67-14.67,6.1-14.86,8.14-29.62,16.48-44.25,25.02-5.68,3.32-10.19,8.16-14.1,13.48-3.88,5.28-5.12,11.16-3.73,17.56,1.48,6.84,6.98,10.51,13.79,8.91,3.06-.72,6.02-2,8.9-3.3,17.85-8.09,36.5-12.22,56.12-10.75,8.08.61,16.09,2.13,24.12,3.31,1,.15,1.92.75,2.84,1.13,0,6.52.25,12.86-.04,19.17-1.36,28.98-.27,57.93,1.05,86.87.67,14.82,1.6,29.63,2.43,44.44.39,6.88,1.07,13.75,1.18,20.63.35,21.44-4.25,42.1-10.71,62.36-10.55,33.09-26.68,63.05-50.92,88.25-26.59,27.65-58.97,44.46-96.73,50.98-18.55,3.21-37.2,3.99-55.96,2.31-.88-.08-1.76-.11-2.65-.14-2.34-.07-4.22.63-4.74,3.2-.45,2.22.82,4.58,3.18,5.45,1.97.73,4.07,1.17,6.15,1.55,22.39,4.1,44.64,3.5,66.73-2.05,7.88-1.98,15.76-3.91,23.65-5.85,1.51-.37,3.04-.63,4.93-1.01.15,1.85.31,3.38.4,4.91.72,12.87,1.42,25.74,2.14,38.61.06,1.06.23,2.11.27,3.17.18,4.77,2.5,7.83,7.05,9.39,12.02,4.12,23.95,8.48,36.01,12.49,8.04,2.68,16.22,4.91,24.33,7.36,1.34.4,2.66.88,4.47,1.49-1.05,1.32-1.78,2.43-2.7,3.36-16.4,16.56-36.14,26.97-58.97,31.32-18.2,3.47-36.51,6.37-54.75,9.63-12.72,2.28-25.15,5.61-36.92,11.09-13.57,6.32-25.13,15.03-33.06,28.01-.53.87-1.27,1.61-2.13,2.69-1.27-.95-2.5-1.63-3.42-2.61-14.46-15.48-31.9-26.81-50.86-35.77-16.12-7.61-32.59-14.47-48.95-21.56-16.4-7.11-32.53-14.68-46.8-25.65-3.06-2.35-5.97-4.89-9.84-8.07,12.53-3.04,24.19-5.16,36.2-7.52,8.79-30.83,13.76-62.68,19.99-94.2-1.1-.75-1.62-1.23-2.23-1.51-24.46-11.26-44.84-28.07-63.44-47.16-29.89-30.68-54.48-65.35-75.83-102.37-2.12-3.68-4.54-5.61-8.85-6.3-12.76-2.03-25.01-5.98-37.07-10.67-10.74-4.17-18.72-11.35-24.38-21.04-8.08-13.82-14.03-28.56-16.27-44.5-1.42-10.13-2.14-20.36-3.04-30.56-.2-2.22.16-4.5.25-6.5,9.62-2.89,19.02-4.9,27.72-8.57,8.71-3.67,16.71-9.01,25.65-13.96,9.95,6.64,12.85,17.42,15.17,29.5-3.76-.4-6.66-.71-9.57-1.01-12-1.21-23.17,1.54-33.59,7.39-1.92,1.07-3.71,2.76-4.93,4.59-1.77,2.66-1.14,5.8,1.05,8.32,2.07,2.39,4.68,3.18,7.64,2.1,1.98-.72,3.86-1.74,5.75-2.7,9.01-4.59,18.48-5.61,28.34-3.69,1.56.3,3.14.46,4.71.74,4.57.8,5.22,1.43,5.49,6.21.62,11.12,1.08,22.23-.92,33.29-.28,1.54-.24,3.18-.13,4.75.19,2.88,1.56,5.12,4.33,6.11,2.75.99,5.43.39,7.18-1.93,1.55-2.06,2.94-4.42,3.71-6.86,2.92-9.29,2.48-18.9,1.69-28.39-1.33-15.88-4.59-31.43-9.66-46.56-2.84-8.48-6.65-16.37-13.61-22.34-.38-.33-.58-.86-1.28-1.95,1.8-2.42,3.73-5,6.04-8.1,1.4,1.45,2.3,2.43,3.24,3.36,3.37,3.34,6.49,7.02,10.23,9.87,2.57,1.96,4.26,4.06,5,7.08,3.2,13.02,6.42,26.04,9.6,39.06,1.46,6,2.56,12.11,4.39,17.99,1.19,3.82,3.03,7.55,5.22,10.91,2.97,4.55,7.49,6.3,12.91,5.03,2.06-.48,4.11-1.05,6.09-1.77,6.49-2.36,8.07-4.63,7.42-11.5-.58-6.15-1.81-12.24-2.29-18.39-.47-6.15-.51-12.34-.44-18.51.03-2.24.75-4.53,1.47-6.69,2.16-6.45,6.11-11.05,13.2-12.25,2.96-.5,5.94-.92,8.84-1.65,22.6-5.69,36.26-20.52,41.78-42.63,2.46-9.87,3.22-20.2,4.25-30.37,1.07-10.59,2.72-21.07,6.34-31.05,2.26-6.25,5.14-12.44,8.75-18.01,4.32-6.67,10.66-10.59,19.22-9.86,6.51.55,13.06,1.07,19.58.9,31.87-.83,57.3-13.53,74.47-41.11,5.25-8.43,9.59-17.31,12.82-26.69,3.56-10.35,7-20.73,10.27-31.18,4.03-12.88,14.03-18.19,26.79-13.9,6.46,2.17,12.04,5.91,17.21,10.24,3.92,3.29,7.62,6.85,11.45,10.25,4.32,3.83,6.76,3.69,10.8-.54.37-.38.69-.81,1.04-1.2,8.27-9.13,17.41-11.17,28.64-6.11,5.67,2.56,10.91,5.74,14.24,11.39,1.33,2.25,3.09,4.38,5.06,6.09,4.66,4.04,6.1,9.1,6.3,15.08.31,9.53.96,19.14,4.03,28.23,3.44,10.19,7.43,20.2,11.54,30.15,2.29,5.54,6.87,9.33,11.73,12.67,7.66,5.26,16.21,8.55,24.98,11.37,1.46.47,2.91.95,4.9,1.61Zm-257.35,44.79c9.61.15,19.04,1.31,28.4,3.33,15.45,3.34,30.04,9.06,44.39,15.54,3.17,1.43,6.62,2.66,10.04,3,7.22.72,12.23-3.59,13.2-10.77.79-5.84-.46-11.22-4.02-16.01-4.68-6.31-10.17-11.74-16.84-15.93-11.96-7.52-23.91-15.05-35.9-22.52-9.03-5.63-18.77-9.8-28.75-13.4-6.22-2.24-12.42-2.15-18.65.17-7.67,2.87-14.88,6.59-21.29,11.66-8.72,6.91-17.3,14-25.85,21.12-3.68,3.07-5.66,7.14-6.1,11.94-.42,4.56,1.31,8.13,5.44,9.96,3.51,1.55,7.27,3.12,11.02,3.41,7.37.57,14.81.51,22.21.24,7.57-.28,15.13-1.13,22.69-1.73Zm-5.65,55.92c.28.88.53,1.37.59,1.87,1.11,10.7,2.1,21.42,3.32,32.11,1.47,12.96,8.94,21.38,20.96,25.44,11.05,3.73,20.92,1.12,28.88-7.65,3.98-4.39,6.83-9.5,8.34-15.2,2.56-9.63,3.53-19.51,2.48-29.41-1.47-13.95-11.62-24.5-24.95-26.45-15.58-2.27-30.14,1.32-44.14,7.88-1.43.67-2.9,1.44-4.04,2.51-2.68,2.52-5.27,5.16-7.69,7.94-.63.72-.51,2.1-.91,4.02,6.24-1.11,11.69-2.09,17.15-3.07Zm217.03,2.84c0,7.93-.33,14.78.08,21.6.54,8.82,3.45,16.91,9.48,23.61,9.2,10.23,23.61,11.53,34.2,2.78,3.06-2.53,5.97-5.71,7.78-9.2,5.36-10.3,8.29-21.44,7.88-33.07-.62-18.12-14.09-29.88-31.07-26.93-8.63,1.5-17.11,4.2-25.42,7.06-4.41,1.52-8.38,4.43-12.38,6.98-1.67,1.07-2.9,2.84-5.22,5.2,5.8.78,10.37,1.39,14.66,1.96Zm-52.15,216.1c.63-.08,1.86-.18,3.07-.39,11.47-2.01,22.94-3.98,34.39-6.12,2.74-.51,5.58-1.21,8.04-2.47,5.49-2.81,5.55-8.97.32-12.2-3.9-2.41-8-2.31-12.25-1.06-13.88,4.07-28.09,5.35-42.45,4.27-15.3-1.15-30.58-2.77-45.85-4.31-19.01-1.91-37.77-4.98-55.71-11.99-2.2-.86-4.84-1.15-7.21-.92-4.23.4-6.71,3.88-5.5,7.93.71,2.38,2.27,4.89,4.18,6.43,2.69,2.18,5.88,4.1,9.17,5.12,7.9,2.45,15.9,4.71,24,6.33,28.11,5.62,56.75,6.66,85.8,9.38Zm10.76-116.71c.45-16.34-9.71-33.52-21.88-39.81-6.35-3.28-12.49.47-12.4,7.59.06,4.37,2.42,7.55,5.19,10.67,3.02,3.41,6.3,6.82,8.42,10.78,7.04,13.18.72,27.76-13.6,32.08-2.35.71-4.88.78-7.25,1.42-2.86.77-5.89,1.42-8.4,2.87-3.81,2.2-5.31,6.38-4.32,9.95,1.01,3.65,4.19,5.93,8.97,6.02,9.71.18,18.96-1.78,27.46-6.61,8.41-4.78,13.95-11.93,16-21.39,1.15-5.32,1.47-10.81,1.82-13.57Zm54.37,60.92c6.4-.01,10.65-4.48,10.67-11.24.03-6.46-4.25-10.42-11.31-10.48-6.76-.06-10.51,3.4-10.57,9.74-.07,7.2,4.41,11.99,11.2,11.98Zm-103.98-182.05c-.09-2.89-2.24-5-5.03-4.93-2.8.07-4.89,2.26-4.88,5.11,0,3,2.53,5.52,5.31,5.31,2.57-.19,4.68-2.71,4.6-5.49Z"/>
  <path class="cls-1" d="m471.1,951.06c10.04,3.04,18.38,6.78,26.2,11.62,1.02.63,1.72,2.04,2.18,3.24,1.25,3.27,1.86,6.85,3.49,9.9,13.73,25.63,22.86,52.78,26.79,81.55,2.01,14.68,3.17,29.48,4.55,44.24,1.79,19.16,3.43,38.33,5.09,57.49.26,2.97.32,5.97.49,9.33-2.66-.78-2.76-2.88-3.28-4.54-3.38-10.77-6.69-21.57-10.03-32.36-17.66-56.96-35.33-113.92-52.97-170.89-.87-2.81-1.5-5.7-2.51-9.58Z"/>
  <path d="m538.2,376.44c-7.56.6-15.12,1.45-22.69,1.73-7.4.27-14.84.33-22.21-.24-3.75-.29-7.51-1.86-11.02-3.41-4.13-1.83-5.86-5.4-5.44-9.96.44-4.81,2.42-8.88,6.1-11.94,8.55-7.12,17.13-14.21,25.85-21.12,6.41-5.08,13.62-8.79,21.29-11.66,6.23-2.33,12.43-2.42,18.65-.17,9.98,3.6,19.72,7.77,28.75,13.4,11.99,7.48,23.94,15.01,35.9,22.52,6.67,4.19,12.16,9.62,16.84,15.93,3.56,4.79,4.8,10.17,4.02,16.01-.97,7.18-5.98,11.49-13.2,10.77-3.42-.34-6.87-1.57-10.04-3-14.35-6.48-28.94-12.2-44.39-15.54-9.36-2.02-18.79-3.18-28.4-3.33Z"/>
  <path d="m532.54,432.36c-5.46.98-10.91,1.95-17.15,3.07.4-1.92.28-3.3.91-4.02,2.42-2.77,5-5.42,7.69-7.94,1.13-1.06,2.61-1.84,4.04-2.51,14.01-6.56,28.56-10.16,44.14-7.88,13.33,1.94,23.48,12.5,24.95,26.45,1.04,9.91.08,19.78-2.48,29.41-1.51,5.7-4.36,10.81-8.34,15.2-7.96,8.78-17.83,11.38-28.88,7.65-12.02-4.06-19.49-12.49-20.96-25.44-1.22-10.69-2.21-21.4-3.32-32.11-.05-.5-.3-.99-.59-1.87Z"/>
  <path d="m749.57,435.2c-4.29-.57-8.86-1.19-14.66-1.96,2.33-2.36,3.55-4.14,5.22-5.2,4-2.55,7.97-5.46,12.38-6.98,8.3-2.87,16.79-5.56,25.42-7.06,16.97-2.95,30.44,8.82,31.07,26.93.4,11.63-2.53,22.77-7.88,33.07-1.81,3.49-4.72,6.67-7.78,9.2-10.59,8.75-25,7.45-34.2-2.78-6.02-6.7-8.94-14.79-9.48-23.61-.42-6.81-.08-13.67-.08-21.6Z"/>
  <path d="m697.42,651.31c-29.05-2.73-57.69-3.76-85.8-9.38-8.1-1.62-16.1-3.88-24-6.33-3.29-1.02-6.48-2.94-9.17-5.12-1.91-1.55-3.47-4.06-4.18-6.43-1.21-4.05,1.27-7.53,5.5-7.93,2.36-.22,5.01.06,7.21.92,17.93,7.01,36.7,10.08,55.71,11.99,15.27,1.54,30.54,3.16,45.85,4.31,14.35,1.08,28.57-.21,42.45-4.27,4.25-1.25,8.35-1.35,12.25,1.06,5.23,3.23,5.17,9.39-.32,12.2-2.46,1.26-5.29,1.95-8.04,2.47-11.45,2.13-22.92,4.1-34.39,6.12-1.21.21-2.44.31-3.07.39Z"/>
  <path d="m708.18,534.6c-.35,2.76-.67,8.26-1.82,13.57-2.04,9.46-7.58,16.6-16,21.39-8.5,4.83-17.75,6.79-27.46,6.61-4.78-.09-7.96-2.36-8.97-6.02-.98-3.57.51-7.75,4.32-9.95,2.52-1.46,5.54-2.1,8.4-2.87,2.37-.64,4.9-.72,7.25-1.42,14.31-4.32,20.64-18.9,13.6-32.08-2.12-3.97-5.4-7.37-8.42-10.78-2.77-3.12-5.13-6.3-5.19-10.67-.09-7.12,6.05-10.87,12.4-7.59,12.17,6.3,22.33,23.48,21.88,39.81Z"/>
  <path d="m762.55,595.52c-6.79.01-11.26-4.78-11.2-11.98.06-6.34,3.81-9.79,10.57-9.74,7.06.06,11.33,4.02,11.31,10.48-.03,6.75-4.28,11.23-10.67,11.24Z"/>
  <path d="m658.57,413.47c.08,2.78-2.03,5.3-4.6,5.49-2.78.2-5.3-2.32-5.31-5.31,0-2.84,2.08-5.03,4.88-5.11,2.79-.07,4.95,2.04,5.03,4.93Z"/>
</svg>