<svg fill="none" height="24" viewBox="0 0 24 24" width="24" xmlns="http://www.w3.org/2000/svg"><g fill="#FFFF"><path clip-rule="evenodd" d="m14.25 2.5c0-.13807-.1119-.25-.25-.25h-7c-1.51878 0-2.75 1.23122-2.75 2.75v14c0 1.5188 1.23122 2.75 2.75 2.75h10c1.5188 0 2.75-1.2312 2.75-2.75v-9.85294c0-.13807-.1119-.25-.25-.25h-4.5c-.4142 0-.75-.33579-.75-.75zm-2.25 7.5c-1.1046 0-2 .8954-2 2s.8954 2 2 2 2-.8954 2-2-.8954-2-2-2zm-4 8.5c0-1.6569 1.34315-3 3-3h2c1.6569 0 3 1.3431 3 3 0 .5523-.4477 1-1 1h-6c-.55228 0-1-.4477-1-1z" fill-rule="evenodd"/><path d="m15.75 2.82414c0-.1845.1926-.30164.3362-.18575.1209.09761.2296.21197.3223.34116l3.0132 4.1979c.0686.09557-.0057.21961-.1234.21961h-3.2983c-.1381 0-.25-.11193-.25-.25z"/></g></svg>