<svg width="8" height="8" viewBox="0 0 8 8" fill="none" xmlns="http://www.w3.org/2000/svg">
<path d="M5.87965 0.0300293C5.69965 0.0400293 5.51965 0.0600293 5.34965 0.120029C5.07965 0.220029 4.81965 0.370029 4.59965 0.590029C4.53635 0.630156 4.48288 0.684 4.44319 0.747579C4.40351 0.811157 4.37863 0.882843 4.37038 0.957336C4.36214 1.03183 4.37075 1.10722 4.39557 1.17794C4.4204 1.24865 4.4608 1.31289 4.5138 1.36588C4.56679 1.41888 4.63102 1.45928 4.70174 1.4841C4.77246 1.50893 4.84785 1.51754 4.92234 1.50929C4.99683 1.50105 5.06852 1.47617 5.1321 1.43648C5.19568 1.3968 5.24952 1.34333 5.28965 1.28003C5.39965 1.17003 5.52965 1.11003 5.66965 1.06003C6.01965 0.940029 6.44965 0.990029 6.72965 1.28003C7.11965 1.67003 7.11965 2.32003 6.72965 2.72003L5.22965 4.22003C4.78965 4.66003 4.42965 4.70003 4.16965 4.69003C3.90965 4.68003 3.75965 4.56003 3.75965 4.56003C3.70187 4.5272 3.63818 4.50607 3.57224 4.49785C3.50629 4.48963 3.43937 4.49448 3.3753 4.51213C3.31123 4.52977 3.25126 4.55986 3.19881 4.60068C3.14637 4.6415 3.10248 4.69225 3.06965 4.75003C3.03682 4.80781 3.01569 4.87149 3.00747 4.93744C2.99925 5.00339 3.0041 5.07031 3.02174 5.13438C3.03939 5.19845 3.06948 5.25842 3.1103 5.31087C3.15112 5.36331 3.20187 5.4072 3.25965 5.44003C3.25965 5.44003 3.59965 5.66003 4.09965 5.69003C4.59965 5.72003 5.29965 5.53003 5.90965 4.91003L7.40965 3.41003C8.18965 2.63003 8.18965 1.37003 7.40965 0.600029C7.12965 0.320029 6.79965 0.150029 6.43965 0.0700293C6.25965 0.0300293 6.05965 0.0300293 5.87965 0.0400293V0.0300293ZM3.87965 2.34003C3.37965 2.32003 2.68965 2.49003 2.09965 3.09003L0.599648 4.59003C-0.180352 5.37003 -0.180352 6.63003 0.599648 7.40003C1.15965 7.96003 1.95965 8.12003 2.65965 7.87003C2.92965 7.77003 3.18965 7.62003 3.40965 7.40003C3.47295 7.3599 3.52642 7.30606 3.5661 7.24248C3.60579 7.1789 3.63067 7.10721 3.63891 7.03272C3.64716 6.95823 3.63855 6.88284 3.61372 6.81212C3.5889 6.7414 3.5485 6.67717 3.4955 6.62418C3.4425 6.57118 3.37827 6.53078 3.30756 6.50595C3.23684 6.48113 3.16145 6.47252 3.08695 6.48076C3.01246 6.48901 2.94078 6.51389 2.8772 6.55358C2.81362 6.59326 2.75978 6.64673 2.71965 6.71003C2.60965 6.82003 2.47965 6.88003 2.33965 6.93003C1.98965 7.05003 1.55965 7.00003 1.27965 6.71003C0.889648 6.32003 0.889648 5.67003 1.27965 5.27003L2.77965 3.77003C3.17965 3.37003 3.52965 3.32003 3.80965 3.33003C4.08965 3.34003 4.27965 3.42003 4.27965 3.42003C4.33824 3.46397 4.40576 3.49451 4.47745 3.50947C4.54914 3.52444 4.62325 3.52348 4.69453 3.50665C4.7658 3.48983 4.83251 3.45755 4.88994 3.4121C4.94737 3.36665 4.99411 3.30914 5.02686 3.24364C5.05961 3.17813 5.07758 3.10623 5.07948 3.03302C5.08138 2.95981 5.06718 2.88707 5.03787 2.81996C5.00857 2.75284 4.96488 2.69298 4.90989 2.64461C4.8549 2.59624 4.78996 2.56054 4.71965 2.54003C4.71965 2.54003 4.37965 2.34003 3.87965 2.32003V2.34003Z" fill="#FFA500"/>
</svg>
